<?xml version="1.0" standalone="no"?><!DOCTYPE svg PUBLIC "-//W3C//DTD SVG 1.1//EN" "http://www.w3.org/Graphics/SVG/1.1/DTD/svg11.dtd"><svg t="1559194988390" class="icon" style="" viewBox="0 0 1024 1024" version="1.1" xmlns="http://www.w3.org/2000/svg" p-id="1456" xmlns:xlink="http://www.w3.org/1999/xlink" width="200" height="200"><defs><style type="text/css"></style></defs><path d="M623.807 528.693a113.756 113.756 0 0 0-0.139-33.126l252.787-252.692c26.245-26.236 26.245-68.772 0-95.006-26.248-26.236-68.798-26.236-95.043 0L528.281 400.902c-5.296-0.762-10.708-1.164-16.216-1.164s-10.92 0.402-16.216 1.164l-253.13-253.031c-26.245-26.236-68.796-26.236-95.043 0-26.245 26.234-26.245 68.77 0 95.006l252.789 252.692a113.726 113.726 0 0 0-0.14 33.124L147.676 781.247c-26.245 26.236-26.245 68.77 0 95.006 26.248 26.236 68.798 26.236 95.043 0L494.85 624.218c5.613 0.859 11.362 1.305 17.215 1.305s11.602-0.446 17.215-1.305l252.13 252.035c26.245 26.236 68.796 26.236 95.043 0 26.245-26.236 26.245-68.77 0-95.006L623.807 528.693z" fill="#5E9DF3" p-id="1457"></path><path d="M512.063 444.326c37.407 0 67.73 30.327 67.73 67.736 0 37.41-30.323 67.735-67.73 67.735-37.405 0-67.728-30.325-67.728-67.735 0.001-37.408 30.323-67.736 67.728-67.736z" fill="#3080EE" p-id="1458"></path></svg>